<svg width="151" height="42" viewBox="0 0 151 42" fill="none" xmlns="http://www.w3.org/2000/svg">
<path d="M74.9988 20.0687C74.9988 25.0682 71.3011 28.1482 65.3316 28.1482H60.2037V34.7022H55.9878V11.9893H65.3316C71.3011 11.9893 74.9988 15.0403 74.9988 20.0687ZM70.7497 20.0687C70.7497 17.2125 68.8345 15.5585 65.1368 15.5585H60.2037V24.579H65.1368C68.8345 24.579 70.7622 22.925 70.7622 20.0687H70.7497Z" fill="white"/>
<path d="M83.7579 17.4443H79.542V34.7018H83.7579V17.4443Z" fill="white"/>
<path d="M104.526 34.7022L98.3615 26.0714L92.2594 34.7022H87.459L95.895 23.1198L87.9108 11.9893H92.6823L98.4859 20.0687L104.227 11.9893H108.787L100.857 22.9581L109.393 34.7022H104.526Z" fill="white"/>
<path d="M129.316 31.1661V34.7022H112.278V11.9893H128.86V15.5253H116.498V21.4326H127.463V24.8899H116.498V31.1661H129.316Z" fill="white"/>
<path d="M134.344 11.9893H138.56V31.133H150.436V34.7022H134.344V11.9893Z" fill="white"/>
<path d="M83.7579 11.9893H79.542V16.114H83.7579V11.9893Z" fill="#BE1E2D"/>
<path d="M10.7646 17.6611H6.94251L0.289062 29.4715L7.09589 41.2156L11.0092 41.2114L4.13604 29.4342L10.7646 17.6611Z" fill="white"/>
<path d="M36.8681 12.5369L29.9825 0.871552L16.4103 0.84668L14.5034 4.22937L16.9036 4.22522H28.0922L34.9985 15.9361L36.8681 12.5369Z" fill="white"/>
<path d="M44.8314 26.0381L37.8256 37.8692H27.6526H24.2119L26.1893 41.2063L39.7325 41.2146L46.7798 29.342L44.8314 26.0381Z" fill="white"/>
<path d="M18.5292 12.4541C18.483 12.1801 18.4595 11.9028 18.4588 11.625C18.4591 10.759 18.6681 9.90578 19.0681 9.1377H11.7473L9.86523 12.4541H18.5292Z" fill="#BE1E2D"/>
<path d="M28.5201 14.4639C27.9177 15.4525 27.016 16.2236 25.9458 16.6651L30.3856 24.1932L32.2552 20.794L28.5201 14.4639Z" fill="#BE1E2D"/>
<path d="M23.8845 7.74805C23.1149 7.74805 22.3626 7.97642 21.7229 8.40424C21.0832 8.83206 20.5848 9.44009 20.2909 10.1513C19.997 10.8626 19.9207 11.645 20.0717 12.3997C20.2228 13.1543 20.5943 13.8471 21.1394 14.3904C21.6845 14.9337 22.3785 15.3031 23.1336 15.4517C23.8887 15.6003 24.6709 15.5216 25.3812 15.2253C26.0915 14.9291 26.6979 14.4288 27.1237 13.7877C27.5494 13.1466 27.7754 12.3936 27.7729 11.624C27.76 10.5979 27.3458 9.61771 26.619 8.89325C25.8922 8.1688 24.9106 7.75772 23.8845 7.74805ZM23.8845 13.1371C23.5872 13.1371 23.2966 13.0491 23.0494 12.8841C22.8021 12.7191 22.6092 12.4846 22.4951 12.2101C22.3809 11.9356 22.3507 11.6335 22.408 11.3418C22.4654 11.0501 22.6079 10.782 22.8176 10.5712C23.0272 10.3604 23.2945 10.2165 23.5859 10.1575C23.8772 10.0985 24.1795 10.1271 24.4546 10.2397C24.7298 10.3523 24.9653 10.5439 25.1317 10.7903C25.298 11.0367 25.3877 11.3268 25.3893 11.624C25.3882 12.0236 25.2296 12.4066 24.9479 12.6898C24.6661 12.9731 24.284 13.1339 23.8845 13.1371Z" fill="#BE1E2D"/>
<path d="M38.5065 27.1035L42.0011 21.2336L40.0196 17.8799L35.9404 24.8111C37.0021 25.307 37.8945 26.1042 38.5065 27.1035Z" fill="#BE1E2D"/>
<path d="M27.4335 30.2253C27.4346 30.0008 27.4485 29.7766 27.4749 29.5537H19.5322L21.5138 32.8908H28.0636C27.6489 32.0635 27.4331 31.1507 27.4335 30.2253Z" fill="#BE1E2D"/>
<path d="M33.4153 26.3369C32.6462 26.3369 31.8944 26.565 31.255 26.9922C30.6155 27.4195 30.1172 28.0268 29.8228 28.7373C29.5285 29.4478 29.4515 30.2297 29.6016 30.9839C29.7516 31.7382 30.1219 32.4311 30.6658 32.9749C31.2096 33.5187 31.9024 33.889 32.6567 34.0391C33.411 34.1891 34.1928 34.1121 34.9033 33.8178C35.6138 33.5235 36.2211 33.0251 36.6484 32.3856C37.0757 31.7462 37.3037 30.9944 37.3037 30.2253C37.294 29.1971 36.8812 28.2137 36.1541 27.4866C35.4269 26.7594 34.4436 26.3466 33.4153 26.3369ZM33.4153 31.726C33.1173 31.7268 32.8258 31.6392 32.5777 31.4741C32.3296 31.3091 32.1361 31.0741 32.0217 30.799C31.9073 30.5238 31.8771 30.2209 31.9351 29.9286C31.993 29.6364 32.1364 29.3679 32.3471 29.1572C32.5578 28.9465 32.8263 28.8031 33.1186 28.7451C33.4109 28.6872 33.7138 28.7173 33.9889 28.8317C34.2641 28.9462 34.499 29.1397 34.6641 29.3878C34.8291 29.6359 34.9168 29.9274 34.9159 30.2253C34.9127 30.6223 34.7535 31.0021 34.4728 31.2829C34.1921 31.5636 33.8123 31.7227 33.4153 31.726Z" fill="#BE1E2D"/>
<path d="M16.109 25.102L20.2544 17.7148H16.424L12.8838 24.0284C14.0465 24.029 15.1779 24.4056 16.109 25.102Z" fill="#BE1E2D"/>
<path d="M16.2042 33.7539C15.2811 34.474 14.1495 34.8754 12.979 34.8981L16.6394 41.2157H20.5652L16.2042 33.7539Z" fill="#BE1E2D"/>
<path d="M12.8747 25.5742C12.1052 25.5742 11.3529 25.8026 10.7132 26.2304C10.0734 26.6582 9.57506 27.2663 9.28113 27.9775C8.98719 28.6887 8.91091 29.4712 9.06196 30.2258C9.21301 30.9805 9.58458 31.6733 10.1296 32.2166C10.6747 32.7599 11.3687 33.1292 12.1238 33.2779C12.8789 33.4265 13.6611 33.3477 14.3714 33.0515C15.0817 32.7553 15.6881 32.255 16.1139 31.6139C16.5397 30.9728 16.7656 30.2198 16.7632 29.4502C16.7502 28.4241 16.336 27.4439 15.6092 26.7194C14.8824 25.995 13.9009 25.5839 12.8747 25.5742ZM12.8747 30.9633C12.5777 30.9625 12.2875 30.8737 12.0407 30.7083C11.794 30.5428 11.6018 30.308 11.4883 30.0334C11.3748 29.7588 11.3451 29.4568 11.4029 29.1654C11.4608 28.874 11.6036 28.6063 11.8134 28.3959C12.0232 28.1856 12.2905 28.042 12.5818 27.9833C12.873 27.9247 13.1751 27.9535 13.45 28.0663C13.7248 28.179 13.9602 28.3706 14.1264 28.6169C14.2925 28.8632 14.3821 29.1531 14.3837 29.4502C14.3837 29.8512 14.225 30.2358 13.9422 30.5201C13.6595 30.8044 13.2757 30.9653 12.8747 30.9675V30.9633Z" fill="#BE1E2D"/>
</svg>
