<svg width="66" height="68" viewBox="0 0 66 68" fill="none" xmlns="http://www.w3.org/2000/svg">
<path d="M46.0572 30.6306C52.0223 30.6306 56.8753 25.7776 56.8753 19.8125C56.8753 13.8474 52.0223 8.99434 46.0572 8.99434C45.5855 8.99434 45.1095 9.0268 44.6325 9.09062C42.1497 3.74539 36.8575 0.339844 30.9118 0.339844C24.5053 0.339844 18.802 4.40746 16.6611 10.3585C16.025 10.1854 15.3651 10.0762 14.6847 10.0762C11.2694 10.0762 8.33982 12.3209 7.41271 15.5252C3.60257 15.9169 0.621094 19.1461 0.621094 23.0579C0.621094 27.2337 4.01798 30.6306 8.19378 30.6306H11.4392V63.085C11.4392 65.4714 13.38 67.4122 15.7665 67.4122H35.2391C37.6256 67.4122 39.5663 65.4714 39.5663 63.085V50.6041C40.2576 50.14 40.9013 49.5958 41.4617 48.9576L41.7321 48.6503L41.7289 45.776H37.4027C35.6134 45.776 34.1573 44.3198 34.1573 42.5305C34.1573 40.7412 35.6134 39.2851 37.4027 39.2851H41.73V36.4086L41.4606 36.1024C40.9002 35.4652 40.2576 34.9211 39.5674 34.457V30.6306H46.0572ZM8.19378 28.467C5.21122 28.467 2.78472 26.0405 2.78472 23.0579C2.78472 20.0753 5.21122 17.6488 8.2641 17.6488L9.19554 17.6651L9.35024 16.7455C9.78837 14.1351 12.031 12.2398 14.6847 12.2398C16.9738 12.2398 19.0238 13.6883 19.7865 15.8455L21.8268 15.125C21.2383 13.4601 20.0916 12.1143 18.6538 11.2261C20.4496 6.05289 25.3719 2.50347 30.9118 2.50347C36.2603 2.50347 40.9943 5.72186 42.9719 10.7036L43.3105 11.5572L44.2084 11.3613C44.8261 11.2261 45.4481 11.158 46.0572 11.158C50.8291 11.158 54.7117 15.0406 54.7117 19.8125C54.7117 24.5843 50.8291 28.467 46.0572 28.467H39.5663V21.9761C39.5663 19.5896 37.6256 17.6488 35.2391 17.6488H15.7665C13.38 17.6488 11.4392 19.5896 11.4392 21.9761V28.467H8.19378ZM37.4027 26.3033H13.6028V21.9761C13.6028 20.7829 14.5732 19.8125 15.7665 19.8125H35.2391C36.4323 19.8125 37.4027 20.7829 37.4027 21.9761V26.3033ZM35.2391 65.2486H15.7665C14.5732 65.2486 13.6028 64.2782 13.6028 63.085V58.7577H37.4027V63.085C37.4027 64.2782 36.4323 65.2486 35.2391 65.2486ZM37.4027 56.5941H13.6028V46.8578H25.4379C27.0757 50.167 30.4218 52.2668 34.1573 52.2668C35.2759 52.2668 36.3696 52.0656 37.4027 51.6989V56.5941ZM37.4027 37.1215C34.4202 37.1215 31.9936 39.548 31.9936 42.5305C31.9936 45.5131 34.4202 47.9396 37.4027 47.9396H39.4473C38.0377 49.3211 36.1402 50.1032 34.1573 50.1032C31.06 50.1032 28.3058 48.2457 27.1406 45.3703L26.8669 44.6942H13.6028V40.3669H26.8669L27.1406 39.6908C28.3058 36.8153 31.06 34.9578 34.1573 34.9578C36.1402 34.9578 38.0377 35.74 39.4473 37.1215H37.4027ZM34.1573 32.7942C30.4218 32.7942 27.0757 34.894 25.4379 38.2033H13.6028V28.467H37.4027V33.3632C36.3696 32.9954 35.2759 32.7942 34.1573 32.7942Z" fill="#2F2F3A"/>
<path d="M24.4204 21.9756H28.7477V24.1392H24.4204V21.9756Z" fill="#2F2F3A"/>
<path d="M22.2568 60.9214H28.7477V63.085H22.2568V60.9214Z" fill="#2F2F3A"/>
<path d="M55.7934 34.9575C51.6176 34.9575 48.2207 38.3544 48.2207 42.5302C48.2207 46.706 51.6176 50.1029 55.7934 50.1029C59.9692 50.1029 63.3661 46.706 63.3661 42.5302C63.3661 38.3544 59.9692 34.9575 55.7934 34.9575ZM55.7934 47.9393C52.8108 47.9393 50.3843 45.5128 50.3843 42.5302C50.3843 39.5476 52.8108 37.1211 55.7934 37.1211C58.7759 37.1211 61.2024 39.5476 61.2024 42.5302C61.2024 45.5128 58.7759 47.9393 55.7934 47.9393Z" fill="#BE1E2D"/>
<path d="M55.7928 39.2847C54.0035 39.2847 52.5474 40.7408 52.5474 42.5301C52.5474 44.3194 54.0035 45.7755 55.7928 45.7755C57.5821 45.7755 59.0382 44.3194 59.0382 42.5301C59.0382 40.7408 57.5821 39.2847 55.7928 39.2847ZM55.7928 43.6119C55.1967 43.6119 54.711 43.1262 54.711 42.5301C54.711 41.934 55.1967 41.4483 55.7928 41.4483C56.3889 41.4483 56.8746 41.934 56.8746 42.5301C56.8746 43.1262 56.3889 43.6119 55.7928 43.6119Z" fill="#BE1E2D"/>
<path d="M30.9117 6.83062C34.5747 6.83062 37.8537 9.14894 39.074 12.5999L41.1143 11.8794C39.5889 7.56517 35.4888 4.66699 30.9117 4.66699C29.2241 4.66699 27.6057 5.04563 26.103 5.79208L27.0658 7.7296C28.2667 7.13352 29.5605 6.83062 30.9117 6.83062Z" fill="#2F2F3A"/>
<path d="M25.142 9.03535L23.6999 7.42236C23.0227 8.02926 22.4223 8.71946 21.916 9.47456L23.714 10.6775C24.1186 10.0728 24.5989 9.52 25.142 9.03535Z" fill="#2F2F3A"/>
<path d="M52.5475 19.8122C52.5475 16.2324 49.6364 13.3213 46.0566 13.3213V15.4849C48.4431 15.4849 50.3839 17.4257 50.3839 19.8122C50.3839 22.1986 48.4431 24.1394 46.0566 24.1394V26.303C49.6364 26.303 52.5475 23.3919 52.5475 19.8122Z" fill="#2F2F3A"/>
<path d="M7.11192 34.9575H4.94829V37.1211H2.78467V39.2848H4.94829V41.4484H7.11192V39.2848H9.27554V37.1211H7.11192V34.9575Z" fill="#2F2F3A"/>
<path d="M7.11192 43.6123H4.94829V45.7759H2.78467V47.9396H4.94829V50.1032H7.11192V47.9396H9.27554V45.7759H7.11192V43.6123Z" fill="#2F2F3A"/>
<path d="M7.11192 52.2666H4.94829V54.4302H2.78467V56.5939H4.94829V58.7575H7.11192V56.5939H9.27554V54.4302H7.11192V52.2666Z" fill="#2F2F3A"/>
<path d="M63.3658 6.83062V4.66699H61.2022V6.83062H59.0386V8.99424H61.2022V11.1579H63.3658V8.99424H65.5294V6.83062H63.3658Z" fill="#2F2F3A"/>
<path d="M63.3658 13.3213H61.2022V15.4849H59.0386V17.6485H61.2022V19.8122H63.3658V17.6485H65.5294V15.4849H63.3658V13.3213Z" fill="#2F2F3A"/>
<path d="M63.3658 21.9756H61.2022V24.1392H59.0386V26.3028H61.2022V28.4665H63.3658V26.3028H65.5294V24.1392H63.3658V21.9756Z" fill="#2F2F3A"/>
</svg>
