<svg width="72" height="71" viewBox="0 0 72 71" fill="none" xmlns="http://www.w3.org/2000/svg">
<path d="M21.2231 63.6182H23.4871V65.8821H21.2231V63.6182Z" fill="#2F2F3A"/>
<path d="M21.2231 59.0913H23.4871V61.3553H21.2231V59.0913Z" fill="#2F2F3A"/>
<path d="M68.0802 17.6734C67.615 15.9064 66.912 14.2129 65.9838 12.6248L67.3773 9.83786L61.4197 3.88253L58.6339 5.27486C57.0457 4.34777 55.3523 3.64482 53.5853 3.17958L52.6027 0.228516H44.1797L43.1949 3.17844C41.4278 3.64369 39.7344 4.34664 38.1463 5.27373L35.3605 3.8814L29.4029 9.83672L30.7963 12.6236C30.3764 13.3425 30.0153 14.0884 29.6881 14.8502C29.1289 14.3341 28.6943 14.0364 28.6422 14.0024L27.7513 13.4092L26.8831 14.5672C25.1116 16.9297 22.2895 18.3401 19.3362 18.3401C12.8873 18.3401 7.63951 23.588 7.63951 30.0368V38.7157C7.63951 41.2128 9.67027 43.2436 12.1674 43.2436H13.5563C14.5344 45.374 16.0082 47.2327 17.8273 48.6997V50.3999L7.25237 54.6313C3.36177 56.1866 0.847656 59.8995 0.847656 64.0912V70.411H43.8627V64.0912C43.8627 59.9006 41.3486 56.1877 37.458 54.6313L26.8831 50.4011V48.6997C28.7022 47.2315 30.1749 45.3728 31.154 43.2436H32.543C34.0111 43.2436 35.3039 42.5304 36.1313 41.4449L38.1417 40.4589C39.731 41.3871 41.4256 42.0912 43.1949 42.5576L44.1785 45.5075H52.6016L53.5853 42.5576C55.3523 42.0924 57.0457 41.3894 58.6339 40.4623L61.4197 41.8547L67.3773 35.8982L65.9838 33.1124C66.9109 31.5242 67.6138 29.8308 68.0802 28.0638L71.0301 27.0801V18.6571L68.0802 17.6734ZM19.3362 20.6041C22.731 20.6041 25.9843 19.1019 28.1905 16.5493C29.0474 17.3496 30.279 18.8122 30.279 20.6041C30.279 23.108 26.1858 24 22.3552 24V26.264C27.1174 26.264 30.3786 25.1444 31.7744 23.1227C33.6885 24.8965 34.8069 27.3903 34.8069 30.0368V34.8172C34.1379 34.4278 33.3716 34.1878 32.543 34.1878C32.543 32.3155 31.0193 30.7919 29.147 30.7919H26.2854C23.1487 30.7919 20.0075 30.0504 17.2024 28.6468L16.6138 28.3536L13.6797 30.3096C12.7323 30.9413 12.1674 31.9974 12.1674 33.135V34.1878C11.3388 34.1878 10.5725 34.4278 9.90346 34.8172V30.0368C9.90346 24.8354 14.1348 20.6041 19.3362 20.6041ZM34.8069 22.868C34.8069 15.3777 40.9003 9.28432 48.3906 9.28432C55.8809 9.28432 61.9743 15.3777 61.9743 22.868C61.9743 30.3583 55.8809 36.4517 48.3906 36.4517C43.8016 36.4517 39.5986 34.1708 37.0709 30.3515V30.0368C37.0709 27.525 36.2536 25.1286 34.8137 23.1522C34.8115 23.0582 34.8069 22.9631 34.8069 22.868ZM30.262 38.7044L30.2552 38.7157H25.7511V36.4517H30.279V38.7044H30.262ZM23.8019 35.3198H20.9085C20.5157 34.6462 19.7935 34.1878 18.9593 34.1878H14.4314V33.135C14.4314 32.7558 14.6193 32.4038 14.9351 32.1932L16.7859 30.9594C19.7494 32.3325 23.0197 33.0558 26.2854 33.0558H29.147C29.7719 33.0558 30.279 33.5641 30.279 34.1878H25.7511C24.9169 34.1878 24.1947 34.6462 23.8019 35.3198ZM14.4597 38.7157L14.4314 38.6727V36.9679V36.4517H18.9593V38.7157H14.4597ZM12.1674 40.9796C10.9188 40.9796 9.90346 39.9643 9.90346 38.7157C9.90346 37.4671 10.9188 36.4517 12.1674 36.4517V36.9679V38.7157C12.1674 39.0972 12.2704 39.4503 12.438 39.7662C12.5161 40.1793 12.636 40.5778 12.747 40.9796H12.1674ZM18.6774 57.039L18.065 52.7454L18.5744 52.5416L20.7704 55.4689L18.6774 57.039ZM41.5988 64.0912V68.147H37.0709V61.3552H34.8069V68.147H9.90346V61.3552H7.63951V68.147H3.11161V64.0912C3.11161 60.8322 5.06766 57.9434 8.0923 56.7333L15.9007 53.6102L16.9772 61.1446L22.3552 57.1103L27.7332 61.1435L28.8097 53.6091L36.6181 56.7322C39.6427 57.9434 41.5988 60.8311 41.5988 64.0912ZM26.136 52.5405L26.6454 52.7443L26.033 57.0378L23.94 55.4689L26.136 52.5405ZM24.6191 50.7905L22.3552 53.8083L20.0912 50.7905V50.2392C20.6901 50.5641 21.3104 50.8539 21.9567 51.0961L22.3552 51.2444L22.7536 51.0961C23.4 50.8539 24.0215 50.5629 24.6191 50.2392V50.7905ZM22.3552 48.8186C18.9004 47.3889 16.2595 44.4933 15.0958 40.9796H18.9593C20.2078 40.9796 21.2232 39.9643 21.2232 38.7157V37.5837H23.4872V38.7157C23.4872 39.9643 24.5025 40.9796 25.7511 40.9796H29.6145C28.4509 44.4933 25.81 47.3889 22.3552 48.8186ZM32.543 40.9796H31.9634C32.0743 40.5778 32.1955 40.1793 32.2724 39.7662C32.44 39.4503 32.543 39.0972 32.543 38.7157V36.4517C33.7915 36.4517 34.8069 37.4671 34.8069 38.7157C34.8069 39.9643 33.7915 40.9796 32.543 40.9796ZM68.7662 25.4478L66.1694 26.3138L66.0268 26.9329C65.5785 28.8856 64.8065 30.7443 63.7334 32.4581L63.3961 32.9969L64.6232 35.4511L60.9737 39.0994L58.5207 37.8735L57.9807 38.2108C56.2669 39.2851 54.4082 40.0559 52.4556 40.5042L51.8352 40.6457L50.9704 43.2436H45.8097L44.9438 40.6468L44.3234 40.5053C42.3708 40.0571 40.5121 39.2851 38.7983 38.212L38.264 37.878L37.0709 38.4621V33.9557C40.0197 36.977 44.0586 38.7157 48.3906 38.7157C57.1295 38.7157 64.2383 31.6069 64.2383 22.868C64.2383 14.1292 57.1295 7.02037 48.3906 7.02037C40.3117 7.02037 33.6376 13.1013 32.6743 20.9244C32.6267 20.8859 32.5769 20.8486 32.5294 20.8112C32.5328 20.741 32.543 20.6754 32.543 20.6041C32.543 19.1189 32.0155 17.833 31.3487 16.8018C31.7857 15.5758 32.3517 14.3907 33.0478 13.2779L33.3852 12.7391L32.1581 10.285L35.8076 6.63663L38.2606 7.86256L38.8005 7.52523C40.5143 6.45099 42.373 5.68011 44.3257 5.23185L44.946 5.09035L45.8109 2.49247H50.9715L51.8375 5.08922L52.4578 5.23072C54.4105 5.67898 56.2692 6.45099 57.983 7.5241L58.5229 7.86143L60.9759 6.6355L64.6254 10.2839L63.3984 12.738L63.7357 13.2768C64.8088 14.9906 65.5808 16.8493 66.0291 18.802L66.1717 19.4212L68.7662 20.2883V25.4478Z" fill="#2F2F3A"/>
<path d="M46.127 47.7715H66.5025V50.0354H46.127V47.7715Z" fill="#BE1E2D"/>
<path d="M46.127 52.2993H66.5025V54.5633H46.127V52.2993Z" fill="#BE1E2D"/>
<path d="M46.127 56.8271H57.4467V59.0911H46.127V56.8271Z" fill="#BE1E2D"/>
<path d="M64.2388 56.8271H66.5027V59.0911H64.2388V56.8271Z" fill="#BE1E2D"/>
<path d="M59.7109 56.8271H61.9749V59.0911H59.7109V56.8271Z" fill="#BE1E2D"/>
</svg>
