<svg width="67" height="67" viewBox="0 0 67 67" fill="none" xmlns="http://www.w3.org/2000/svg">
<path d="M49.9424 10.5818V12.4818H52.4224V21.3818H54.4224V12.4818H56.9024V10.5818H49.9424ZM56.9024 9.28184V7.38184H49.9424V9.28184H56.9024Z" fill="#BE1E2D"/>
<path d="M52.2454 32.2542V38.1431H42.8231C38.9257 38.1431 35.7564 41.3124 35.7564 45.2098C35.7564 49.1072 38.9257 52.2765 42.8231 52.2765H52.2454V59.3432H2.77842V33.4319H49.8898V31.0764H2.77842V29.8986C2.77842 29.2499 3.30751 28.7208 3.95621 28.7208H40.9069V26.3652H3.95621C2.00838 26.3652 0.422852 27.9508 0.422852 29.8986V62.8766C0.422852 64.8244 2.00838 66.4099 3.95621 66.4099H51.0676C53.0155 66.4099 54.601 64.8244 54.601 62.8766V32.2542H52.2454ZM52.2454 62.8766C52.2454 63.5264 51.7163 64.0544 51.0676 64.0544H3.95621C3.30751 64.0544 2.77842 63.5264 2.77842 62.8766V61.6988H52.2454V62.8766ZM42.8231 49.9209C40.2249 49.9209 38.112 47.8081 38.112 45.2098C38.112 42.6115 40.2249 40.4987 42.8231 40.4987H52.2454V49.9209H42.8231Z" fill="#2F2F3A"/>
<path d="M5.13379 35.7881H7.48936V38.1437H5.13379V35.7881Z" fill="#2F2F3A"/>
<path d="M53.4224 26.3664C46.2792 26.3664 40.4668 20.5539 40.4668 13.4107C40.4668 6.26752 46.2792 0.455078 53.4224 0.455078C60.5656 0.455078 66.3781 6.26752 66.3781 13.4107C66.3781 20.5539 60.5656 26.3664 53.4224 26.3664ZM53.4224 2.81065C47.5784 2.81065 42.8224 7.56665 42.8224 13.4107C42.8224 19.2548 47.5784 24.0108 53.4224 24.0108C59.2665 24.0108 64.0225 19.2548 64.0225 13.4107C64.0225 7.56665 59.2665 2.81065 53.4224 2.81065Z" fill="#BE1E2D"/>
<path d="M5.13379 40.5H7.48936V42.8556H5.13379V40.5Z" fill="#2F2F3A"/>
<path d="M5.13379 45.2119H7.48936V47.5675H5.13379V45.2119Z" fill="#2F2F3A"/>
<path d="M5.13379 49.9219H7.48936V52.2774H5.13379V49.9219Z" fill="#2F2F3A"/>
<path d="M5.13379 54.6348H7.48936V56.9903H5.13379V54.6348Z" fill="#2F2F3A"/>
<path d="M11.0234 5.16602H13.379V8.69937H11.0234V5.16602Z" fill="#2F2F3A"/>
<path d="M6.37109 8.06878L8.03656 6.40332L10.5348 8.90209L8.86929 10.5676L6.37109 8.06878Z" fill="#2F2F3A"/>
<path d="M5.13379 11.0557H8.66715V13.4112H5.13379V11.0557Z" fill="#2F2F3A"/>
<path d="M6.37109 16.3972L8.86929 13.8984L10.5348 15.5645L8.03656 18.0627L6.37109 16.3972Z" fill="#2F2F3A"/>
<path d="M11.0234 15.7656H13.379V19.299H11.0234V15.7656Z" fill="#2F2F3A"/>
<path d="M13.8662 15.5639L15.5317 13.8984L18.0304 16.3966L16.3644 18.0627L13.8662 15.5639Z" fill="#2F2F3A"/>
<path d="M15.7334 11.0557H19.2668V13.4112H15.7334V11.0557Z" fill="#2F2F3A"/>
<path d="M13.8662 8.90151L16.3644 6.40332L18.0299 8.06878L15.5317 10.567L13.8662 8.90151Z" fill="#2F2F3A"/>
<path d="M26.334 1.63281H28.6896V3.98838H26.334V1.63281Z" fill="#2F2F3A"/>
<path d="M26.334 6.34277H28.6896V8.69834H26.334V6.34277Z" fill="#2F2F3A"/>
<path d="M28.6895 3.98828H31.045V6.34385H28.6895V3.98828Z" fill="#2F2F3A"/>
<path d="M23.9785 3.98828H26.3341V6.34385H23.9785V3.98828Z" fill="#2F2F3A"/>
<path d="M42.8224 48.7444C40.8746 48.7444 39.2891 47.1589 39.2891 45.2111C39.2891 43.2633 40.8746 41.6777 42.8224 41.6777C44.7703 41.6777 46.3558 43.2633 46.3558 45.2111C46.3558 47.1589 44.7703 48.7444 42.8224 48.7444ZM42.8224 44.0333C42.1737 44.0333 41.6446 44.5612 41.6446 45.2111C41.6446 45.8609 42.1737 46.3889 42.8224 46.3889C43.4711 46.3889 44.0002 45.8609 44.0002 45.2111C44.0002 44.5612 43.4711 44.0333 42.8224 44.0333Z" fill="#2F2F3A"/>
</svg>
